<svg width="80" height="47" viewBox="0 0 80 47" fill="none" xmlns="http://www.w3.org/2000/svg">
<path d="M0 4.5C0 2.29086 1.79086 0.5 4 0.5H76C78.2091 0.5 80 2.29086 80 4.5V42.5C80 44.7091 78.2091 46.5 76 46.5H4C1.79086 46.5 0 44.7091 0 42.5V4.5Z" fill="white"/>
<circle cx="7.5" cy="8" r="1.5" fill="#A7A9BC"/>
<circle cx="11.5" cy="8" r="1.5" fill="#A7A9BC"/>
<circle cx="15.5" cy="8" r="1.5" fill="#A7A9BC"/>
<rect x="6.40789" y="16.9079" width="67.1842" height="23.1842" rx="1.59211" stroke="#6B6C7E" stroke-width="0.81579" stroke-dasharray="3.26 3.26"/>
<path fill-rule="evenodd" clip-rule="evenodd" d="M40 24.5C39.4477 24.5 39 24.9477 39 25.5V27.5H37C36.4477 27.5 36 27.9477 36 28.5C36 29.0523 36.4477 29.5 37 29.5H39V31.5C39 32.0523 39.4477 32.5 40 32.5C40.5523 32.5 41 32.0523 41 31.5V29.5H43C43.5523 29.5 44 29.0523 44 28.5C44 27.9477 43.5523 27.5 43 27.5H41V25.5C41 24.9477 40.5523 24.5 40 24.5Z" fill="#6B6C7E"/>
</svg>
